<?xml version="1.0" encoding="UTF-8"?>
<svg id="Isolationsmodus" xmlns="http://www.w3.org/2000/svg" version="1.1" viewBox="0 0 32 32">
  <!-- Generator: Adobe Illustrator 30.5.1, SVG Export Plug-In . SVG Version: 2.1.4 Build 3)  -->
  <defs>
    <style>
      .st0 {
        fill: #f5f5f4;
      }
    </style>
  </defs>
  <path class="st0" d="M30.14,16.17c-.18-.17-.43-.27-.67-.26.02-.32-.1-.64-.34-.86-.2-.19-.47-.29-.77-.29h-.02c-.27.01-.51.12-.7.3-.05-.1-.11-.19-.2-.27-.18-.16-.41-.23-.66-.22v-7.88h-.99v-1.07l-6.36-.72c-1-.12-2.02.05-2.93.48l-.41.19-.41-.19c-.92-.43-1.93-.59-2.93-.48l-6.27.71h-.09v1.08h-1.14v7.88c-.26-.02-.5.06-.68.22-.08.08-.15.17-.2.27-.19-.18-.44-.29-.71-.3-.31,0-.58.1-.79.29-.24.22-.36.54-.34.86h0c-.25,0-.48.09-.66.26-.37.34-.42.91-.11,1.31l2.52,3.27c-.15.04-.29.1-.42.2-.46.36-.56,1.02-.21,1.5l1.2,1.66c1.04,1.44,2.83,2.12,4.56,1.74l.53-.12.99,1.16c.13.15.32.24.52.24.16,0,.32-.06.44-.16l2.63-2.22c.14-.12.23-.29.24-.48.01-.19-.05-.37-.18-.51l-.58-.62c-.1-.11-.17-.24-.19-.38l-.29-1.39c-.05-.21-.12-.44-.22-.69h5.42c-.1.25-.18.47-.22.69l-.29,1.4c-.03.14-.1.27-.19.38l-.58.62c-.13.14-.19.32-.18.51.01.19.1.36.24.48l2.63,2.22c.12.1.28.16.44.16.2,0,.39-.09.52-.24l.99-1.16.53.12c1.73.38,3.52-.31,4.56-1.74l1.2-1.66c.35-.48.25-1.14-.21-1.5-.13-.1-.27-.17-.42-.2l2.52-3.27c.31-.4.26-.96-.11-1.31ZM27.99,15.49c.1-.11.23-.17.37-.18h.01c.14,0,.28.05.38.14.21.19.23.52.05.73-.02.02-.04.04-.05.05l-1.97,2.23v-1.61l1.21-1.36ZM27.06,15.19c.14.13.15.34.02.48l-.31.35v-.91c.07-.01.19-.01.29.08ZM16.33,5.99l.37-.17c.84-.39,1.76-.54,2.67-.44l5.94.67v13.05l-6.07-.59c-.17-.02-.35-.03-.53-.03-.7,0-1.41.14-2.06.4l-.32.13v-1.93h1.69c.63,0,1.14-.51,1.14-1.14v-4.01c0-.32-.13-.62-.37-.84v-1.45c0-1.4-1.07-2.58-2.46-2.74v-.91ZM18.3,9.64v1.68l.1.07c.17.13.27.32.27.53v4.01c0,.36-.3.66-.66.66h-4.01c-.36,0-.66-.3-.66-.66v-4.01c0-.36.3-.66.66-.66h3.84v-1.63c0-1.01-.82-1.83-1.83-1.83s-1.82.81-1.83,1.81h-.46c.01-1.26,1.04-2.27,2.29-2.27s2.29,1.03,2.29,2.29ZM16.33,10.79v-2.46c.6.15,1.04.69,1.04,1.31v1.15h-1.04ZM4.94,15.19c.1-.09.23-.09.29-.08h.02v.93l-.33-.37c-.12-.14-.11-.35.02-.48ZM3.25,15.45c.1-.09.25-.14.39-.14.15,0,.28.07.38.18l1.23,1.39v1.61l-2-2.25s-.03-.04-.04-.05c-.18-.22-.17-.55.04-.74ZM12.71,20.74c.12.27.21.51.26.75l.29,1.39c.05.24.16.46.33.64l.58.62s.04.06.04.1c0,.04-.02.07-.05.09l-2.63,2.22c-.06.05-.14.04-.19-.02l-1.2-1.41-.85.19c-1.52.33-3.09-.27-4-1.53l-1.2-1.66c-.17-.24-.13-.56.1-.74.11-.09.26-.13.41-.11.15.02.27.1.36.21l1.1,1.49.55-.32c1.13-.65,2.54-.58,3.61.16l.53.37.31-.45-.53-.37c-1.24-.86-2.89-.93-4.2-.18l-.12.07-.81-1.09c-.1-.13-.22-.24-.36-.31l-2.86-3.7c-.13-.17-.11-.42.05-.57.09-.08.2-.13.31-.11.1,0,.19.04.26.1l2.45,2.76v1.37h7.44l.02.05ZM15.85,20.2H5.73V7.17h.66v12.46l6.6-.65c.8-.08,1.62.04,2.36.34l.5.2v.67ZM15.85,19.01l-.32-.13c-.82-.33-1.71-.46-2.59-.37l-6.07.59V6.05l5.93-.67c.91-.1,1.84.05,2.67.44l.37.17v.88c-1.45.09-2.61,1.31-2.61,2.76v.46h1.42v-.46c0-.69.52-1.26,1.19-1.34v2.49h-1.84c-.63,0-1.14.51-1.14,1.14v4.01c0,.63.51,1.14,1.14,1.14h1.84v1.93ZM16.33,19.53l.5-.2c.74-.3,1.56-.42,2.36-.34l6.6.65V7.17h.51v13.03h-9.97v-.67ZM29.81,17.14l-2.86,3.7c-.14.08-.26.18-.36.31l-.81,1.09-.12-.07c-1.31-.75-2.96-.68-4.2.18l-.53.37.31.45.53-.37c1.07-.74,2.48-.8,3.61-.16l.55.32,1.1-1.49c.09-.12.22-.19.36-.21.15-.02.29.02.41.11.23.18.28.51.1.74l-1.2,1.66c-.91,1.26-2.48,1.86-4,1.53l-.85-.19-1.2,1.41c-.05.06-.13.06-.19.02l-2.63-2.22s-.04-.06-.05-.09c0-.04,0-.07.04-.1l.58-.62c.17-.18.28-.4.33-.64l.29-1.39c.05-.23.13-.48.26-.75l.02-.05h7.47v-1.39l2.42-2.72c.07-.07.17-.11.27-.11.11,0,.22.03.3.11.16.15.18.39.05.57Z"/>
  <path class="st0" d="M16.01,12.45c-.53,0-.96.43-.96.96,0,.29.13.56.36.75v.67c0,.33.27.6.6.6s.6-.27.6-.6v-.67c.23-.18.36-.45.36-.75,0-.53-.43-.96-.96-.96ZM16.25,13.82l-.12.07v.93c0,.07-.05.12-.12.12s-.12-.05-.12-.12v-.93l-.12-.07c-.15-.09-.24-.24-.24-.41,0-.26.21-.48.48-.48s.48.21.48.48c0,.17-.09.32-.24.41Z"/>
</svg>