<?xml version="1.0" encoding="UTF-8"?>
<svg id="Isolationsmodus" xmlns="http://www.w3.org/2000/svg" version="1.1" viewBox="0 0 32 32">
  <!-- Generator: Adobe Illustrator 30.5.1, SVG Export Plug-In . SVG Version: 2.1.4 Build 3)  -->
  <defs>
    <style>
      .st0 {
        fill: #f5f5f4;
      }
    </style>
  </defs>
  <path class="st0" d="M27.96,8.55v-1.3l-7.78-.88c-1.23-.14-2.47.06-3.59.59l-.5.23-.5-.23c-1.12-.52-2.36-.73-3.59-.59l-7.67.87h-.11v1.32h-1.4v17.12h26.33V8.55h-1.21ZM12.3,23.59c.98-.1,1.98.05,2.88.42l.61.25v.83H3.42v-15.94h.81v15.24l8.07-.79ZM15.35,7.49l.45.21v1.08c-1.77.1-3.2,1.6-3.2,3.38v.56h1.74v-.56c0-.84.63-1.54,1.46-1.64v3.04h-2.26c-.77,0-1.39.62-1.39,1.39v4.91c0,.77.62,1.39,1.39,1.39h2.26v2.36l-.39-.16c-1-.4-2.1-.56-3.16-.46l-7.43.73V7.78l7.26-.82c1.12-.13,2.25.06,3.27.53ZM18.93,14.31c.21.15.33.39.33.65v4.91c0,.44-.36.81-.81.81h-4.91c-.44,0-.81-.36-.81-.81v-4.91c0-.44.36-.81.81-.81h4.7v-1.99c0-1.24-1.01-2.24-2.24-2.24s-2.23.99-2.24,2.22h-.56c.01-1.54,1.27-2.78,2.81-2.78s2.81,1.26,2.81,2.81v2.06l.12.09ZM20.11,6.96l7.26.82v15.96l-7.43-.73c-.21-.02-.43-.03-.65-.03-.85,0-1.72.17-2.51.49l-.39.16v-2.36h2.07c.77,0,1.39-.62,1.39-1.39v-4.91c0-.39-.16-.76-.45-1.02v-1.77c0-1.71-1.31-3.16-3-3.36v-1.11l.45-.21c1.03-.48,2.16-.66,3.27-.53ZM16.39,13.56v-3c.73.18,1.27.84,1.27,1.6v1.4h-1.27ZM16.39,24.26l.61-.25c.91-.37,1.9-.51,2.88-.42l8.07.79v-15.24h.62v15.94h-12.19v-.83Z"/>
  <path class="st0" d="M16,15.6c-.65,0-1.17.53-1.17,1.17,0,.36.16.69.44.91v.81c0,.4.33.73.73.73s.73-.33.73-.73v-.81c.28-.22.44-.55.44-.91,0-.65-.53-1.17-1.17-1.17ZM16.15,17.36v1.14c0,.08-.07.15-.15.15s-.15-.07-.15-.15v-1.14l-.15-.08c-.18-.11-.29-.3-.29-.5,0-.32.26-.59.59-.59s.59.26.59.59c0,.21-.11.4-.29.5l-.15.08Z"/>
</svg>