<?xml version="1.0" encoding="UTF-8"?>
<svg id="Isolationsmodus" xmlns="http://www.w3.org/2000/svg" version="1.1" viewBox="0 0 32 32">
  <!-- Generator: Adobe Illustrator 30.5.1, SVG Export Plug-In . SVG Version: 2.1.4 Build 3)  -->
  <defs>
    <style>
      .st0 {
        fill: #f5f5f4;
      }
    </style>
  </defs>
  <polygon class="st0" points="7.16 7.22 7.13 7.28 6.53 7.58 6.53 7.95 8.37 8.88 8.37 8.27 7.31 7.77 8.37 7.26 8.37 6.65 7.16 7.27 7.16 7.22"/>
  <polygon class="st0" points="8.54 9.25 9.07 9.25 9.95 5.99 9.41 5.99 8.54 9.25"/>
  <polygon class="st0" points="11.82 7.46 11.76 7.49 10.11 6.65 10.11 7.26 11.17 7.77 10.11 8.27 10.11 8.88 11.96 7.95 11.96 7.58 11.79 7.5 11.82 7.46"/>
  <path class="st0" d="M22.07,15.67c1.01,0,1.83-.82,1.83-1.83s-.82-1.83-1.83-1.83-1.83.82-1.83,1.83.82,1.83,1.83,1.83ZM22.07,12.57c.7,0,1.28.57,1.28,1.28s-.57,1.28-1.28,1.28-1.28-.57-1.28-1.28.57-1.28,1.28-1.28Z"/>
  <path class="st0" d="M12.09,13.84c0,1.01.82,1.83,1.83,1.83s1.83-.82,1.83-1.83-.82-1.83-1.83-1.83-1.83.82-1.83,1.83ZM13.92,15.12c-.7,0-1.28-.57-1.28-1.28s.57-1.28,1.28-1.28,1.28.57,1.28,1.28-.57,1.28-1.28,1.28Z"/>
  <path class="st0" d="M5.86,10.8h6.77c.59,0,1.07-.48,1.07-1.07v-2.38h3.83v6.25c-.9.13-1.56.89-1.56,1.8,0,1.01.82,1.83,1.83,1.83s1.83-.82,1.83-1.83c0-.91-.66-1.67-1.56-1.8v-6.8h-4.37v-1.74c0-.59-.48-1.07-1.07-1.07h-6.77c-.59,0-1.07.48-1.07,1.07v4.67c0,.59.48,1.07,1.07,1.07ZM5.86,4.54h6.77c.25,0,.47.18.51.42h-7.8c.05-.24.26-.42.51-.42ZM12.63,10.25h-6.77c-.29,0-.52-.23-.52-.52v-4.22h7.81v4.22c0,.29-.23.52-.52.52ZM17.8,16.67c-.7,0-1.28-.57-1.28-1.28s.57-1.28,1.28-1.28,1.28.57,1.28,1.28-.57,1.28-1.28,1.28Z"/>
  <path class="st0" d="M29.03,18.68c-.42,0-.79.29-.91.69h-1.04v-2.32h-2.5c-.65-.73-1.56-1.15-2.52-1.15-1.24,0-2.4.71-2.98,1.81-.71-.3-1.42-.36-2.25-.11-.6-1.06-1.71-1.71-2.92-1.71-1,0-1.94.45-2.58,1.23h-5.51v2.37h-1.91c-.12-.41-.5-.69-.93-.69-.54,0-.98.43-.98.97s.44.97.98.97c.43,0,.8-.29.93-.69h1.91v6.09c-.42.11-.71.48-.71.92,0,.53.43.97.97.97s.97-.43.97-.97c0-.42-.27-.78-.67-.9v-3.3h3.8c.12.41.5.69.93.69.54,0,.98-.43.98-.97s-.44-.97-.98-.97c-.43,0-.8.29-.93.69h-3.8v-4.63h4.59c-.27.5-.42,1.05-.42,1.62v.27h4.14c-.17.42-.26.84-.26,1.28v.27h3.16v5.03c-.42.11-.71.48-.71.92,0,.53.43.97.97.97s.97-.43.97-.97c0-.42-.27-.78-.67-.9v-5.04h3.05v-.27c0-.43-.09-.86-.26-1.28h4.53v-.27c0-.6-.16-1.19-.46-1.7h1.54v6.73h-2.72c-.1-.43-.48-.75-.93-.75-.53,0-.97.43-.97.97s.43.97.97.97c.4,0,.75-.26.89-.64h2.76v1.28c-.41.12-.7.49-.7.91,0,.53.43.97.97.97s.97-.43.97-.97c0-.42-.27-.78-.67-.9v-6.22h1.04c.12.41.49.69.91.69.53,0,.97-.43.97-.97s-.43-.97-.97-.97ZM29.03,20.06c-.23,0-.42-.19-.42-.42s.19-.42.42-.42.42.19.42.42-.19.42-.42.42ZM17.84,27.46c-.23,0-.42-.19-.42-.42s.19-.42.42-.42.42.19.42.42-.19.42-.42.42ZM11.11,19c.05-.48.22-.95.5-1.35h.07v-.1c.54-.7,1.36-1.11,2.24-1.11.97,0,1.88.51,2.4,1.35-.55.27-1.01.68-1.35,1.2h-3.87ZM14.99,20.55c.14-1.44,1.35-2.55,2.82-2.55s2.68,1.11,2.82,2.55h-5.63ZM19.58,17.97c.49-.94,1.44-1.52,2.49-1.52,1.46,0,2.68,1.11,2.82,2.55h-4.25c-.27-.41-.63-.77-1.05-1.03ZM26.79,27.46c-.23,0-.42-.19-.42-.42s.19-.42.42-.42.42.19.42.42-.19.42-.42.42ZM6.08,27.46c-.23,0-.42-.19-.42-.42s.19-.42.42-.42.42.19.42.42-.19.42-.42.42ZM2.99,19.35c.24,0,.43.19.43.42s-.19.42-.43.42-.43-.19-.43-.42.19-.42.43-.42ZM11.1,22.98c-.24,0-.43-.19-.43-.42s.19-.42.43-.42.43.19.43.42-.19.42-.43.42ZM22.87,24.11c.23,0,.42.19.42.42s-.19.42-.42.42-.42-.19-.42-.42.19-.42.42-.42Z"/>
</svg>