<?xml version="1.0" encoding="UTF-8"?>
<svg id="Isolationsmodus" xmlns="http://www.w3.org/2000/svg" version="1.1" viewBox="0 0 32 32">
  <!-- Generator: Adobe Illustrator 30.5.1, SVG Export Plug-In . SVG Version: 2.1.4 Build 3)  -->
  <defs>
    <style>
      .st0 {
        fill: #f5f5f4;
      }
    </style>
  </defs>
  <path class="st0" d="M16.58,22.5l.44-.71-1.01-1.01-.71.44c-.31-.19-.65-.33-1-.41l-.19-.81h-1.43l-.19.81c-.35.09-.69.23-1,.41l-.71-.44-1.01,1.01.44.71c-.19.31-.33.65-.41,1l-.81.19v1.43l.81.19c.09.35.23.69.41,1l-.44.71,1.01,1.01.71-.44c.31.19.65.33,1,.41l.19.81h1.43l.19-.81c.35-.09.69-.23,1-.41l.71.44,1.01-1.01-.44-.71c.19-.31.33-.65.41-1l.81-.19v-1.43l-.81-.19c-.09-.35-.23-.69-.41-1ZM16.52,24.86l-.03.17c-.08.41-.24.79-.47,1.13l-.1.15.4.64-.39.39-.64-.4-.15.1c-.35.23-.73.39-1.13.47l-.17.03-.17.73h-.56l-.17-.73-.17-.03c-.4-.08-.78-.24-1.13-.47l-.15-.1-.64.4-.39-.39.4-.64-.1-.15c-.23-.34-.39-.72-.47-1.13l-.03-.17-.73-.17v-.56l.73-.17.03-.17c.08-.4.24-.78.47-1.13l.1-.15-.4-.64.39-.39.64.4.15-.1c.34-.23.72-.39,1.13-.47l.17-.03.17-.73h.56l.17.73.17.03c.4.08.78.24,1.13.47l.15.1.64-.4.39.39-.4.64.1.15c.23.34.39.72.47,1.13l.03.17.73.17v.56l-.73.17Z"/>
  <path class="st0" d="M13.39,21.57c-1.56,0-2.83,1.27-2.83,2.83s1.27,2.83,2.83,2.83,2.83-1.27,2.83-2.83-1.27-2.83-2.83-2.83ZM13.39,26.69c-1.26,0-2.28-1.02-2.28-2.28s1.02-2.28,2.28-2.28,2.28,1.02,2.28,2.28-1.02,2.28-2.28,2.28Z"/>
  <path class="st0" d="M27.29,20.52h-2.65c-.88,0-1.59.71-1.59,1.59v4.44c0,.95.78,1.73,1.73,1.73h2.51c.95,0,1.73-.78,1.73-1.73v-4.3c0-.95-.78-1.73-1.73-1.73ZM27.29,27.74h-2.51c-.65,0-1.18-.53-1.18-1.18v-4.36s4.86,0,4.86,0c0,.02.01.04.01.06v4.3c0,.65-.53,1.18-1.18,1.18ZM23.73,21.65c.17-.35.52-.57.91-.57h2.65c.42,0,.79.22,1.01.57h-4.57Z"/>
  <polygon class="st0" points="24.66 24.33 24.56 24.52 24.31 24.65 24.21 24.6 24.26 24.67 24.15 24.73 24.15 25.02 24.29 25.09 24.27 25.14 24.32 25.11 24.62 25.26 24.66 25.34 24.66 25.28 25.48 25.7 25.48 25.19 24.82 24.88 25.48 24.56 25.48 24.06 24.66 24.47 24.66 24.33"/>
  <polygon class="st0" points="25.5 25.93 25.95 25.93 26.57 23.63 26.12 23.63 25.5 25.93"/>
  <polygon class="st0" points="27.91 24.57 27.75 24.64 27.47 24.51 27.4 24.38 27.4 24.47 26.58 24.06 26.58 24.56 27.25 24.88 26.58 25.19 26.58 25.7 27.75 25.11 27.82 25.14 27.79 25.09 27.92 25.02 27.92 24.73 27.83 24.68 27.91 24.57"/>
  <path class="st0" d="M6.25,6.72c.98,0,1.77-.8,1.77-1.77s-.8-1.77-1.77-1.77-1.77.8-1.77,1.77.79,1.77,1.77,1.77ZM6.25,3.73c.67,0,1.22.55,1.22,1.22s-.55,1.22-1.22,1.22-1.22-.55-1.22-1.22.55-1.22,1.22-1.22Z"/>
  <path class="st0" d="M14.11,6.72c.98,0,1.77-.8,1.77-1.77s-.8-1.77-1.77-1.77-1.77.8-1.77,1.77.79,1.77,1.77,1.77ZM14.11,3.73c.67,0,1.22.55,1.22,1.22s-.55,1.22-1.22,1.22-1.22-.55-1.22-1.22.55-1.22,1.22-1.22Z"/>
  <path class="st0" d="M10,8.22c.98,0,1.77-.79,1.77-1.77s-.8-1.77-1.77-1.77-1.77.8-1.77,1.77.79,1.77,1.77,1.77ZM10,5.23c.67,0,1.22.55,1.22,1.22s-.55,1.22-1.22,1.22-1.22-.55-1.22-1.22.55-1.22,1.22-1.22Z"/>
  <path class="st0" d="M23.27,19.53c0-1.68-1.37-3.05-3.05-3.05-1.68,0-3.05,1.37-3.05,3.05,0,.25.04.54.08.7.01.05.97,3.12,1.14,3.66.05.16.08.33.08.49v.93l.03.12h.03c.12.44.51.75.97.75h1.47c.45,0,.84-.31.97-.75h.06v-1.09c0-.17.03-.32.07-.46.2-.62,1.13-3.62,1.14-3.65.04-.16.08-.45.08-.7ZM21.33,25.43c-.09.12-.23.2-.38.2h-1.47c-.16,0-.3-.08-.38-.2h2.23ZM21.08,20.18h-.17v-.17c0-.09.08-.17.17-.17s.17.08.17.17-.08.17-.17.17ZM19.35,19.84c.09,0,.17.08.17.17v.17h-.17c-.09,0-.17-.08-.17-.17s.08-.17.17-.17ZM20.36,20.73v3.4h-.29v-3.4h.29ZM21.52,23.71c-.04.14-.07.28-.09.42h-.52v-3.4h.17c.4,0,.72-.32.72-.72s-.32-.72-.72-.72-.72.32-.72.72v.17h-.29v-.17c0-.4-.32-.72-.72-.72s-.72.32-.72.72.32.72.72.72h.17v3.4h-.52c-.02-.14-.05-.28-.09-.42-.24-.73-1.13-3.6-1.13-3.61-.03-.13-.07-.36-.07-.57,0-1.38,1.12-2.5,2.5-2.5,1.38,0,2.5,1.13,2.5,2.5,0,.19-.03.43-.06.56-.03.11-.9,2.9-1.13,3.62ZM19.01,24.88v-.2h2.41v.2h-2.41Z"/>
  <path class="st0" d="M19.9,14.22v1.66c0,.15.12.27.27.27s.27-.12.27-.27v-1.66c0-.15-.12-.27-.27-.27s-.27.12-.27.27Z"/>
  <path class="st0" d="M16.63,15.33c-.11.11-.11.28,0,.39l1.17,1.17c.05.05.12.08.19.08s.14-.03.19-.08c.11-.11.11-.28,0-.39l-1.17-1.17c-.1-.1-.29-.1-.39,0Z"/>
  <path class="st0" d="M15.28,18.26c-.15,0-.27.12-.27.27s.12.27.27.27h1.66c.15,0,.27-.12.27-.27s-.12-.27-.27-.27h-1.66Z"/>
  <path class="st0" d="M23.32,15.33l-1.17,1.17c-.11.11-.11.28,0,.39.05.05.12.08.19.08s.14-.03.19-.08l1.17-1.17c.11-.11.11-.28,0-.39s-.29-.1-.39,0Z"/>
  <path class="st0" d="M23.13,18.53c0,.15.12.27.27.27h1.66c.15,0,.27-.12.27-.27s-.12-.27-.27-.27h-1.66c-.15,0-.27.12-.27.27Z"/>
  <path class="st0" d="M7.94,20.79l.22,1.04c-1.96-1.5-3.13-3.84-3.13-6.31,0-.92.16-1.83.48-2.7l.38,1.01.51-.2-.73-1.93-1.87.87.23.5.96-.45c-.34.94-.51,1.91-.51,2.89,0,2.65,1.25,5.15,3.36,6.76l-1.06.15.08.54,2.04-.29-.43-2.02-.54.12Z"/>
  <path class="st0" d="M19.56,10.39l-.35-1.03c1.44.89,2.47,2.52,2.76,4.37l-.81-.7-.36.42,1.56,1.35,1.23-1.65-.44-.33-.63.85c-.31-2.01-1.44-3.79-3.02-4.77l1.01-.26-.14-.53-2,.51.66,1.95.52-.17Z"/>
  <path class="st0" d="M6.72,11.69c0,.15.12.27.27.27h5.99c.15,0,.27-.12.27-.27,0-.41-.08-.82-.25-1.22h4.09c.15,0,.27-.12.27-.27,0-1.8-1.47-3.27-3.27-3.27-1.22,0-2.31.67-2.88,1.75-.68-.28-1.37-.34-2.16-.1-.59-1.02-1.66-1.65-2.82-1.65-1.8,0-3.27,1.47-3.27,3.27,0,.15.12.27.27.27h3.72c-.16.4-.25.81-.25,1.22ZM6.25,7.47c.93,0,1.8.49,2.3,1.29-.52.26-.97.66-1.29,1.16h-3.72c.14-1.38,1.3-2.45,2.71-2.45ZM7.29,11.42c.14-1.38,1.3-2.45,2.71-2.45s2.57,1.06,2.71,2.45h-5.41ZM11.72,8.93c.47-.9,1.38-1.46,2.39-1.46,1.4,0,2.57,1.06,2.71,2.45h-4.09c-.26-.39-.6-.73-1.01-.99Z"/>
</svg>