<?xml version="1.0" encoding="UTF-8"?>
<svg xmlns="http://www.w3.org/2000/svg" version="1.1" viewBox="0 0 32 32">
  <!-- Generator: Adobe Illustrator 30.5.1, SVG Export Plug-In . SVG Version: 2.1.4 Build 3)  -->
  <defs>
    <style>
      .st0 {
        fill: #fff;
      }

      .st1 {
        fill: #f5f5f4;
      }
    </style>
  </defs>
  <g id="Ebene_1">
    <circle class="st0" cx="6.86" cy="5.82" r=".59"/>
  </g>
  <g id="Isolationsmodus">
    <g>
      <path class="st1" d="M16.27,13.05h11.28l1.87,1.87v-6.05c0-.67-.54-1.21-1.21-1.21h-7.99v-2.21h7.39c.15.39.51.64.93.64.56,0,1.01-.45,1.01-1.01s-.45-1.01-1.01-1.01c-.49,0-.9.36-.99.83h-7.33v-1.53c.43-.12.74-.51.74-.96,0-.56-.45-1.01-1.01-1.01s-1.01.45-1.01,1.01c0,.45.3.83.74.96v4.29h-3.39c-.67,0-1.21.54-1.21,1.21v2.96c0,.67.54,1.21,1.21,1.21ZM19.94,1.96c.25,0,.46.21.46.46s-.21.46-.46.46-.46-.21-.46-.46.21-.46.46-.46ZM16.27,8.22h11.94c.36,0,.66.3.66.66v4.72l-1.09-1.09h-11.5c-.36,0-.66-.3-.66-.66v-2.96c0-.36.3-.66.66-.66ZM28.52,4.62c.25,0,.46.21.46.46s-.21.46-.46.46-.46-.21-.46-.46.21-.46.46-.46Z"/>
      <path class="st1" d="M28.91,16.76c-.45,0-.83.3-.96.74h-6.28v-2.59c0-.71-.53-1.27-1.21-1.27h-7.71v-2.74c.43-.12.74-.51.74-.96,0-.56-.45-1.01-1.01-1.01-.45,0-.83.3-.96.74h-4.38v-2.89c.43-.12.74-.51.74-.96,0-.56-.45-1.01-1.01-1.01s-1.01.45-1.01,1.01c0,.45.3.83.74.96v2.89h-1.8c-.12-.43-.51-.74-.96-.74-.56,0-1.01.45-1.01,1.01s.45,1.01,1.01,1.01c.45,0,.83-.3.96-.74h6.73c.1.34.36.6.7.69v2.74h-3.69c-.67,0-1.21.54-1.21,1.21v2.22H2.82v7.06c-.43.12-.74.51-.74.96,0,.56.45,1.01,1.01,1.01s1.01-.45,1.01-1.01c0-.45-.3-.83-.74-.96v-3.15h.54c.12.43.51.74.96.74.56,0,1.01-.45,1.01-1.01s-.45-1.01-1.01-1.01c-.45,0-.83.3-.96.74h-.54v-2.84h3.95v4.7l1.87-1.87h6.2v3.09h-2.22c-.12-.43-.51-.74-.96-.74-.56,0-1.01.45-1.01,1.01s.45,1.01,1.01,1.01c.45,0,.83-.3.96-.74h2.22v4.56c-.43.12-.74.51-.74.96,0,.56.45,1.01,1.01,1.01s1.01-.45,1.01-1.01c0-.45-.3-.83-.74-.96v-8.2h4.53c.66,0,1.21-.53,1.21-1.15v-1.23h3.32v5.35c-.43.12-.74.51-.74.96,0,.56.45,1.01,1.01,1.01s1.01-.45,1.01-1.01c0-.45-.3-.83-.74-.96v-5.35h2.41c.12.43.51.74.96.74.56,0,1.01-.45,1.01-1.01s-.45-1.01-1.01-1.01ZM28.91,18.24c-.25,0-.46-.21-.46-.46s.21-.46.46-.46.46.21.46.46-.21.46-.46.46ZM25.27,24.82c-.25,0-.46-.21-.46-.46s.21-.46.46-.46.46.21.46.46-.21.46-.46.46ZM15.66,30.04c-.25,0-.46-.21-.46-.46s.21-.46.46-.46.46.21.46.46-.21.46-.46.46ZM12.01,9.94c0-.25.21-.46.46-.46s.46.21.46.46-.21.46-.46.46-.46-.21-.46-.46ZM20.46,19.88h-11.5l-1.09,1.09v-6.12c0-.36.3-.66.66-.66h11.94c.38,0,.66.31.66.72v4.37c0,.32-.31.6-.66.6ZM6.86,5.36c.25,0,.46.21.46.46s-.21.46-.46.46-.46-.21-.46-.46.21-.46.46-.46ZM3.83,9.48c.25,0,.46.21.46.46s-.21.46-.46.46-.46-.21-.46-.46.21-.46.46-.46ZM3.09,25.55c-.25,0-.46-.21-.46-.46s.21-.46.46-.46.46.21.46.46-.21.46-.46.46ZM4.87,21.18c-.25,0-.46-.21-.46-.46s.21-.46.46-.46.46.21.46.46-.21.46-.46.46ZM12.21,23.33c.25,0,.46.21.46.46s-.21.46-.46.46-.46-.21-.46-.46.21-.46.46-.46Z"/>
    </g>
  </g>
</svg>