<?xml version="1.0" encoding="UTF-8"?>
<svg id="Ebene_1" xmlns="http://www.w3.org/2000/svg" version="1.1" viewBox="0 0 27.82 29.19">
  <!-- Generator: Adobe Illustrator 30.6.0, SVG Export Plug-In . SVG Version: 2.1.4 Build 109)  -->
  <defs>
    <style>
      .st0 {
        fill: #f5f5f4;
      }
    </style>
  </defs>
  <g id="Isolationsmodus">
    <g>
      <path class="st0" d="M14.19,11.65h11.28l1.87,1.87v-6.05c0-.67-.54-1.21-1.21-1.21h-7.99v-2.21h7.39c.15.39.51.64.93.64.56,0,1.01-.45,1.01-1.01s-.45-1.01-1.01-1.01c-.49,0-.9.36-.99.83h-7.33v-1.53c.43-.12.74-.51.74-.96,0-.56-.45-1.01-1.01-1.01s-1.01.45-1.01,1.01c0,.45.3.83.74.96v4.29h-3.39c-.67,0-1.21.54-1.21,1.21v2.96c0,.67.54,1.21,1.21,1.21h-.02ZM17.86.56c.25,0,.46.21.46.46s-.21.46-.46.46-.46-.21-.46-.46.21-.46.46-.46ZM14.19,6.82h11.94c.36,0,.66.3.66.66v4.72l-1.09-1.09h-11.5c-.36,0-.66-.3-.66-.66v-2.96c0-.36.3-.66.66-.66h0ZM26.44,3.22c.25,0,.46.21.46.46s-.21.46-.46.46-.46-.21-.46-.46.21-.46.46-.46Z"/>
      <path class="st0" d="M26.83,15.36c-.45,0-.83.3-.96.74h-6.28v-2.59c0-.71-.53-1.27-1.21-1.27h-7.71v-2.74c.43-.12.74-.51.74-.96,0-.56-.45-1.01-1.01-1.01-.45,0-.83.3-.96.74h-4.38v-2.89c.43-.12.74-.51.74-.96,0-.56-.45-1.01-1.01-1.01s-1.01.45-1.01,1.01c0,.45.3.83.74.96v2.89h-1.8c-.12-.43-.51-.74-.96-.74-.56,0-1.01.45-1.01,1.01s.45,1.01,1.01,1.01c.45,0,.83-.3.96-.74h6.73c.1.34.36.6.7.69v2.74h-3.69c-.67,0-1.21.54-1.21,1.21v2.22H.74v7.06c-.43.12-.74.51-.74.96,0,.56.45,1.01,1.01,1.01s1.01-.45,1.01-1.01c0-.45-.3-.83-.74-.96v-3.15h.54c.12.43.51.74.96.74.56,0,1.01-.45,1.01-1.01s-.45-1.01-1.01-1.01c-.45,0-.83.3-.96.74h-.54v-2.84h3.95v4.7l1.87-1.87h6.2v3.09h-2.22c-.12-.43-.51-.74-.96-.74-.56,0-1.01.45-1.01,1.01s.45,1.01,1.01,1.01c.45,0,.83-.3.96-.74h2.22v4.56c-.43.12-.74.51-.74.96,0,.56.45,1.01,1.01,1.01s1.01-.45,1.01-1.01c0-.45-.3-.83-.74-.96v-8.2h4.53c.66,0,1.21-.53,1.21-1.15v-1.23h3.32v5.35c-.43.12-.74.51-.74.96,0,.56.45,1.01,1.01,1.01s1.01-.45,1.01-1.01c0-.45-.3-.83-.74-.96v-5.35h2.41c.12.43.51.74.96.74.56,0,1.01-.45,1.01-1.01s-.45-1.01-1.01-1.01h.02ZM26.83,16.84c-.25,0-.46-.21-.46-.46s.21-.46.46-.46.46.21.46.46-.21.46-.46.46ZM23.19,23.42c-.25,0-.46-.21-.46-.46s.21-.46.46-.46.46.21.46.46-.21.46-.46.46ZM13.58,28.64c-.25,0-.46-.21-.46-.46s.21-.46.46-.46.46.21.46.46-.21.46-.46.46ZM9.93,8.54c0-.25.21-.46.46-.46s.46.21.46.46-.21.46-.46.46-.46-.21-.46-.46ZM18.38,18.48H6.88l-1.09,1.09v-6.12c0-.36.3-.66.66-.66h11.94c.38,0,.66.31.66.72v4.37c0,.32-.31.6-.66.6h0ZM4.78,3.96c.25,0,.46.21.46.46s-.21.46-.46.46-.46-.21-.46-.46.21-.46.46-.46ZM1.75,8.08c.25,0,.46.21.46.46s-.21.46-.46.46-.46-.21-.46-.46.21-.46.46-.46ZM1.01,24.15c-.25,0-.46-.21-.46-.46s.21-.46.46-.46.46.21.46.46-.21.46-.46.46ZM2.79,19.78c-.25,0-.46-.21-.46-.46s.21-.46.46-.46.46.21.46.46-.21.46-.46.46ZM10.13,21.93c.25,0,.46.21.46.46s-.21.46-.46.46-.46-.21-.46-.46.21-.46.46-.46Z"/>
    </g>
  </g>
</svg>