<?xml version="1.0" encoding="UTF-8"?>
<svg id="Isolationsmodus" xmlns="http://www.w3.org/2000/svg" version="1.1" viewBox="0 0 32 32">
  <!-- Generator: Adobe Illustrator 30.5.1, SVG Export Plug-In . SVG Version: 2.1.4 Build 3)  -->
  <defs>
    <style>
      .st0 {
        fill: #f5f5f4;
      }
    </style>
  </defs>
  <polygon class="st0" points="10.09 13.96 12.12 14.99 12.12 14.34 10.91 13.77 12.12 13.2 12.12 12.55 10.09 13.57 10.09 13.96"/>
  <polygon class="st0" points="12.33 15.42 12.9 15.42 13.88 11.8 13.31 11.8 12.33 15.42"/>
  <polygon class="st0" points="15.95 13.46 15.92 13.47 14.09 12.55 14.09 13.2 15.3 13.77 14.09 14.34 14.09 14.99 16.12 13.96 16.12 13.57 15.94 13.48 15.95 13.46"/>
  <path class="st0" d="M28.49,22.51c0-1-.42-1.95-1.16-2.62-.23-.21-.5-.38-.77-.52h.09v-.12c0-.33-.02-.67-.06-1l-.02-.12-.55.07.02.12c.04.28.05.56.06.85-.47-.16-.98-.22-1.5-.17-1.63.16-2.95,1.46-3.15,3.08-.07.54,0,1.08.17,1.59h-.03l.88,1.81c-.25.14-.52.28-.79.39l-.12.05.21.51.12-.05c.28-.12.55-.25.82-.4l1.9,3.89c.07.14.2.22.35.22s.29-.08.35-.22l2.83-5.8.18-.39h-.02c.13-.37.2-.76.2-1.16ZM22.27,23.82c-.26-.52-.35-1.1-.28-1.68.17-1.37,1.29-2.47,2.66-2.6.86-.08,1.67.18,2.31.76.62.57.98,1.37.98,2.21,0,.45-.1.9-.31,1.31l-2.68,5.51-2.49-5.11h0l-.19-.4Z"/>
  <path class="st0" d="M24.95,24.24c.82,0,1.49-.67,1.49-1.48s-.67-1.48-1.49-1.48-1.48.67-1.48,1.48.67,1.48,1.48,1.48ZM24.95,21.82c.52,0,.94.42.94.94s-.42.94-.94.94-.94-.42-.94-.94.42-.94.94-.94Z"/>
  <path class="st0" d="M20.23,11.65l-.12-.02-.09.51v-2.63c0-.84-.68-1.52-1.52-1.52h-3.7v-.31l-1.11-.26c-.12-.52-.33-1.02-.61-1.48l.6-.97-1.28-1.28-.97.6c-.46-.28-.95-.49-1.48-.61l-.26-1.11h-1.81l-.26,1.11c-.52.12-1.02.33-1.48.61l-.97-.6-1.28,1.28.6.97c-.28.46-.49.95-.61,1.48l-1.11.26v1.81l1.11.26c.12.52.33,1.02.61,1.48l-.6.97,1.28,1.28.97-.6h.03v4.09c0,.84.68,1.52,1.52,1.52h3.57v.04c-.02.24-.04.48-.04.71,0,.1,0,.19,0,.29v.12s.55-.02.55-.02v-.13c0-.09,0-.18,0-.27,0-.22.01-.44.03-.66v-.09h6.69c.84,0,1.52-.68,1.52-1.52v-4.81l.12.02c.31.05.61.12.91.22l.12.04.16-.53-.12-.04c-.32-.1-.65-.18-.98-.23ZM6.19,12.25l-.02-.02-.9.56-.67-.67.56-.9-.1-.15c-.33-.49-.55-1.03-.67-1.6l-.03-.17-1.03-.24v-.94l1.03-.24.03-.17c.12-.58.34-1.11.67-1.6l.1-.15-.56-.9.67-.67.9.56.15-.1c.49-.33,1.03-.55,1.6-.67l.17-.03.24-1.03h.94l.24,1.03.17.03c.57.11,1.11.34,1.6.67l.15.1.9-.56.67.67-.56.9.1.15c.33.49.55,1.03.66,1.6l.03.17.47.11h-1.16c-.29-1.84-1.89-3.22-3.74-3.22-2.11,0-3.82,1.71-3.82,3.82,0,1.03.43,2,1.21,2.74v.91ZM8.8,5.33c1.55,0,2.9,1.14,3.19,2.67h-4.28c-.84,0-1.52.68-1.52,1.52v1.02c-.43-.57-.66-1.24-.66-1.94,0-1.8,1.47-3.27,3.27-3.27ZM6.74,9.52c0-.53.43-.97.97-.97h10.8c.53,0,.97.43.97.97v.03H6.74v-.03ZM18.51,17.95H7.7c-.53,0-.97-.43-.97-.97v-6.89h12.74v6.89c0,.53-.43.97-.97.97Z"/>
  <path class="st0" d="M25.64,16.73l.04.12.52-.19-.04-.12c-.21-.55-.48-1.07-.8-1.56l-.07-.1-.46.31.07.1c.3.45.55.94.74,1.45Z"/>
  <path class="st0" d="M23.84,14.04l.09.09.38-.4-.09-.09c-.43-.4-.9-.75-1.41-1.05l-.11-.06-.28.47.11.06c.47.27.91.6,1.31.98Z"/>
  <path class="st0" d="M19.77,26.36c-.65.07-1.33.06-1.96-.04l-.12-.02-.09.54.12.02c.4.06.81.09,1.21.09.3,0,.6-.02.9-.05h.12s-.06-.56-.06-.56h-.12Z"/>
  <path class="st0" d="M12.13,21.46l-.04-.12-.52.17.04.12c.22.67.53,1.31.92,1.9l.07.1.46-.31-.07-.1c-.37-.55-.65-1.14-.86-1.76Z"/>
  <path class="st0" d="M14.29,24.69l-.09-.08-.36.42.1.08c.54.46,1.14.84,1.78,1.14l.11.05.23-.5-.11-.05c-.59-.28-1.15-.63-1.65-1.06Z"/>
</svg>