<?xml version="1.0" encoding="UTF-8"?>
<svg id="Isolationsmodus" xmlns="http://www.w3.org/2000/svg" version="1.1" viewBox="0 0 32 32">
  <!-- Generator: Adobe Illustrator 30.5.1, SVG Export Plug-In . SVG Version: 2.1.4 Build 3)  -->
  <defs>
    <style>
      .st0 {
        fill: #f5f5f4;
      }
    </style>
  </defs>
  <path class="st0" d="M30.34,19.95v-1.44l-.83-.19c-.09-.36-.23-.7-.42-1.02l.45-.72-.23-.23-3.17-8.46v-1.45h-8.55c-.32-.57-.91-.92-1.56-.92s-1.24.35-1.56.92H5.86v1.45l-3.18,8.47-.22.22.45.72c-.19.32-.33.66-.42,1.02l-.83.19v1.44l.83.19c.09.36.23.7.42,1.02l-.45.72,1.02,1.02.72-.45c.32.19.66.33,1.02.42l.19.83h1.44l.19-.83c.36-.09.7-.23,1.02-.42l.72.45,1.02-1.02-.45-.72c.19-.32.33-.66.42-1.02l.83-.19v-1.44l-.83-.19c-.09-.36-.23-.7-.42-1.02l.45-.72-.22-.22-3.06-8.15h7.93c.16.28.39.51.68.68v14.98h-2.55c-1.21,0-2.19.98-2.19,2.19v.43h11.25v-.43c0-1.21-.98-2.19-2.19-2.19h-2.55v-14.98c.28-.16.51-.39.68-.68h7.88l-3.05,8.14-.23.23.45.72c-.19.32-.33.66-.42,1.02l-.83.19v1.44l.83.19c.09.36.23.7.42,1.02l-.45.72,1.02,1.02.72-.45c.32.19.66.33,1.02.42l.19.83h1.44l.19-.83c.36-.09.7-.23,1.02-.42l.72.45,1.02-1.02-.45-.72c.19-.32.33-.66.42-1.02l.83-.19ZM8.71,17.3l.1.15c.23.35.39.74.48,1.15l.03.17.74.17v.57l-.74.17-.03.17c-.08.41-.24.8-.48,1.15l-.1.15.4.65-.4.4-.65-.4-.15.1c-.35.23-.74.39-1.15.48l-.17.03-.17.74h-.57l-.17-.74-.17-.03c-.41-.08-.8-.24-1.15-.48l-.15-.1-.65.4-.4-.4.4-.65-.1-.15c-.23-.35-.39-.74-.48-1.15l-.03-.17-.74-.17v-.57l.74-.17.03-.17c.08-.41.24-.8.48-1.15l.1-.15-.4-.65.4-.4.65.4.15-.1c.35-.23.74-.39,1.15-.48l.17-.03.17-.74h.57l.17.74.17.03c.41.08.8.24,1.15.48l.15.1.65-.4.4.4-.4.65ZM8.07,16c-.32-.19-.66-.33-1.02-.42l-.19-.83h-1.44l-.19.83c-.36.09-.7.23-1.02.42l-.65-.4,2.59-6.89,2.59,6.89-.65.4ZM17.79,6.98h7.79v.67h-7.79c.03-.12.04-.23.04-.34s-.01-.22-.04-.34ZM16.03,8.57c-.69,0-1.25-.56-1.25-1.25s.56-1.25,1.25-1.25,1.25.56,1.25,1.25-.56,1.25-1.25,1.25ZM16.36,9.09v14.78h-.67v-14.78c.24.05.44.05.67,0ZM14.26,7.66h-7.85v-.67h7.85c-.03.12-.04.23-.04.34s.01.22.04.34ZM10.96,25.93c.06-.85.77-1.52,1.63-1.52h6.88c.86,0,1.57.67,1.63,1.51h-10.14ZM29.05,19.69l-.03.17c-.08.41-.24.8-.48,1.15l-.1.15.4.65-.4.4-.65-.4-.15.1c-.35.23-.74.39-1.15.48l-.17.03-.17.74h-.57l-.17-.74-.17-.03c-.41-.08-.8-.24-1.15-.48l-.15-.1-.65.4-.4-.4.4-.65-.1-.15c-.23-.35-.39-.74-.48-1.15l-.03-.17-.74-.17v-.57l.74-.17.03-.17c.08-.41.24-.8.48-1.15l.1-.15-.4-.65.4-.4.65.4.15-.1c.35-.23.74-.39,1.15-.48l.17-.03.17-.74h.57l.17.74.17.03c.41.08.8.24,1.15.48l.15.1.65-.4.4.4-.4.65.1.15c.23.35.39.74.48,1.15l.03.17.74.17v.57l-.74.17ZM27.8,16c-.32-.19-.66-.33-1.02-.42l-.19-.83h-1.44l-.19.83c-.36.09-.7.23-1.02.42l-.65-.4,2.58-6.89,2.58,6.89-.65.4Z"/>
  <path class="st0" d="M25.86,16.36c-1.58,0-2.87,1.29-2.87,2.87s1.29,2.87,2.87,2.87,2.87-1.29,2.87-2.87-1.29-2.87-2.87-2.87ZM25.86,21.55c-1.28,0-2.32-1.04-2.32-2.32s1.04-2.32,2.32-2.32,2.32,1.04,2.32,2.32-1.04,2.32-2.32,2.32Z"/>
  <path class="st0" d="M6.14,16.36c-1.58,0-2.87,1.29-2.87,2.87s1.29,2.87,2.87,2.87,2.87-1.29,2.87-2.87-1.29-2.87-2.87-2.87ZM6.14,21.55c-1.28,0-2.32-1.04-2.32-2.32s1.04-2.32,2.32-2.32,2.32,1.04,2.32,2.32-1.04,2.32-2.32,2.32Z"/>
</svg>