<svg width="552" height="179" viewBox="0 0 552 179" fill="none" xmlns="http://www.w3.org/2000/svg">
<path d="M219.027 19.4969H199.448V74.5961H188.986V19.4969H169.545V10.829H219.042V19.4969H219.027Z" fill="#F5F5F4"/>
<path d="M238.688 75.4751C235.187 75.4751 231.983 74.8874 229.105 73.717C226.208 72.5466 223.744 70.9419 221.679 68.8924C219.63 66.843 218.025 64.4307 216.891 61.6352C215.751 58.8447 215.184 55.8293 215.184 52.5891V50.7952C215.184 47.0184 215.787 43.6452 216.993 40.6248C218.199 37.6248 219.819 35.0387 221.853 32.9229C223.887 30.7866 226.248 29.146 228.952 28.0114C231.656 26.8717 234.482 26.3044 237.467 26.3044C240.911 26.3044 243.947 26.8717 246.584 28.0267C249.221 29.1818 251.409 30.8019 253.187 32.8871C254.945 34.9723 256.29 37.4561 257.204 40.313C258.099 43.1751 258.564 46.3131 258.564 49.722V54.153H225.717C225.891 55.998 226.335 57.705 227.076 59.274C227.802 60.8583 228.763 62.2229 229.938 63.3779C231.129 64.533 232.504 65.4273 234.093 66.102C235.678 66.7561 237.436 67.0832 239.332 67.0832C241.985 67.0832 244.433 66.567 246.676 65.4989C248.915 64.4461 250.724 62.9997 252.124 61.1547L257.813 66.4955C257.056 67.6352 256.07 68.734 254.884 69.8022C253.693 70.8703 252.283 71.8209 250.678 72.6438C249.073 73.4717 247.264 74.1412 245.266 74.6625C243.267 75.1787 241.08 75.4189 238.719 75.4189V75.47H238.703L238.688 75.4751ZM237.431 34.7832C235.964 34.7832 234.605 35.0438 233.363 35.5753C232.105 36.0915 230.986 36.8684 229.984 37.865C228.983 38.8616 228.16 40.1035 227.47 41.5345C226.78 42.9808 226.3 44.6214 226.003 46.4613H248.199V45.6691C248.112 44.2739 247.836 42.9093 247.392 41.6214C246.942 40.3284 246.272 39.158 245.393 38.1409C244.514 37.1239 243.41 36.296 242.087 35.6929C240.758 35.0745 239.209 34.7781 237.415 34.7781H237.431V34.7832Z" fill="#F5F5F4"/>
<path d="M289.392 67.1498C290.685 67.1498 291.927 66.9453 293.133 66.5314C294.34 66.1174 295.428 65.5501 296.358 64.8244C297.289 64.0986 298.03 63.24 298.566 62.2383C299.103 61.2366 299.358 60.1685 299.343 58.9981H309.238C309.273 61.2724 308.757 63.4087 307.689 65.407C306.621 67.4053 305.174 69.1481 303.345 70.6455C301.52 72.1277 299.415 73.3185 297.018 74.1975C294.621 75.0766 292.106 75.5059 289.484 75.5059C285.83 75.5059 282.641 74.8875 279.886 73.6251C277.147 72.3679 274.852 70.6609 273.007 68.4735C271.162 66.3014 269.782 63.7664 268.873 60.8891C267.958 58.0117 267.493 54.9606 267.493 51.7204V50.136C267.493 46.8958 267.958 43.8293 268.873 40.9315C269.787 38.0337 271.167 35.5192 273.007 33.3471C274.852 31.1904 277.142 29.4681 279.886 28.1955C282.626 26.9178 285.815 26.2841 289.433 26.2841C292.295 26.2841 294.948 26.7134 297.381 27.5924C299.808 28.4715 301.914 29.6929 303.687 31.2619C305.445 32.8463 306.825 34.727 307.806 36.9145C308.788 39.1019 309.253 41.4988 309.238 44.1002H299.343C299.379 42.8072 299.154 41.601 298.668 40.4613C298.188 39.3216 297.498 38.325 296.583 37.4818C295.668 36.6385 294.621 35.9639 293.394 35.463C292.173 34.9621 290.829 34.7219 289.362 34.7219C287.174 34.7219 285.345 35.1717 283.883 36.0661C282.416 36.9605 281.261 38.1155 280.382 39.5669C279.503 41.0133 278.885 42.6539 278.522 44.4937C278.159 46.3387 277.97 48.199 277.97 50.0951V51.6795C277.97 53.6113 278.159 55.487 278.522 57.332C278.885 59.177 279.503 60.8124 280.382 62.2588C281.261 63.7051 282.431 64.8806 283.883 65.7596C285.35 66.654 287.174 67.0884 289.397 67.0884V67.1396L289.392 67.1498Z" fill="#F5F5F4"/>
<path d="M331.014 33.7817C332.65 31.4359 334.633 29.6267 336.994 28.303C339.34 26.9946 341.957 26.3405 344.854 26.3405C347.302 26.3405 349.561 26.7033 351.626 27.4444C353.676 28.1701 355.434 29.3047 356.9 30.8379C358.367 32.3712 359.502 34.3388 360.314 36.7511C361.122 39.1634 361.536 42.0407 361.536 45.4036V74.6168H351.074V45.3167C351.074 43.5075 350.849 41.9539 350.4 40.6455C349.95 39.3372 349.316 38.269 348.468 37.4206C347.64 36.5773 346.623 35.9385 345.417 35.5398C344.21 35.1259 342.866 34.9214 341.348 34.9214C339.074 34.9214 337.055 35.4019 335.297 36.3525C333.539 37.3031 332.108 38.5756 331.004 40.1804V74.5964H320.542V7.3284H331.004V33.7817H331.014Z" fill="#F5F5F4"/>
<path d="M417.755 74.5967V35.0086H405.019V27.2198H417.755V24.2914C417.755 21.2249 418.22 18.5162 419.135 16.1754C420.049 13.8296 421.373 11.8517 423.116 10.2623C424.859 8.67795 426.944 7.45136 429.407 6.62341C431.855 5.79547 434.61 5.3815 437.682 5.3815C439.7 5.3815 441.612 5.53483 443.436 5.84658C445.261 6.15834 447.157 6.5212 449.16 6.91473L448.246 15.2402C447.106 14.9131 445.782 14.6371 444.264 14.3765C442.746 14.1362 441.039 13.9983 439.143 13.9983C435.366 13.9983 432.627 14.8926 430.889 16.6712C429.152 18.4497 428.288 20.9949 428.288 24.2914V27.2198H445.884V35.0086H428.288V74.5967H417.76H417.755Z" fill="#F5F5F4"/>
<path d="M451.51 50.469C451.51 47.055 452.011 43.8659 453.028 40.9221C454.03 37.9732 455.476 35.4229 457.373 33.2509C459.253 31.0941 461.558 29.3922 464.267 28.1656C466.991 26.9442 470.057 26.3206 473.502 26.3206C476.947 26.3206 480.085 26.9391 482.809 28.1656C485.533 29.3871 487.843 31.0788 489.719 33.2509C491.599 35.4076 493.046 37.9732 494.027 40.9221C495.029 43.871 495.509 47.055 495.509 50.469V51.3839C495.509 54.8285 495.008 58.0176 494.027 60.9819C493.025 63.9308 491.599 66.4811 489.719 68.6174C487.838 70.7537 485.533 72.4453 482.824 73.6822C480.1 74.9036 477.034 75.5271 473.589 75.5271C470.144 75.5271 467.006 74.9087 464.282 73.6822C461.558 72.4607 459.248 70.769 457.352 68.6174C455.456 66.4606 454.025 63.9308 453.008 60.9819C452.006 58.033 451.49 54.8285 451.49 51.3839V50.469H451.505H451.51ZM461.972 51.3788C461.972 53.5355 462.197 55.5645 462.647 57.4606C463.097 59.3567 463.802 61.0279 464.747 62.4742C465.693 63.9206 466.904 65.0603 468.366 65.8882C469.833 66.7162 471.555 67.1301 473.569 67.1301C475.582 67.1301 477.223 66.7162 478.669 65.8882C480.115 65.0603 481.306 63.9257 482.252 62.4742C483.197 61.0279 483.908 59.3567 484.352 57.4606C484.802 55.5645 485.027 53.5304 485.027 51.3788V50.4639C485.027 48.3634 484.802 46.36 484.352 44.4639C483.903 42.5678 483.197 40.8966 482.252 39.4655C481.306 38.0345 480.095 36.8999 478.669 36.0516C477.238 35.2083 475.5 34.7739 473.482 34.7739C471.463 34.7739 469.776 35.2032 468.31 36.0516C466.843 36.8948 465.657 38.0345 464.727 39.4655C463.797 40.8966 463.107 42.5678 462.642 44.4639C462.192 46.36 461.967 48.3583 461.967 50.4639V51.3788H461.972Z" fill="#F5F5F4"/>
<path d="M533.063 26.3411C533.907 26.3411 534.75 26.3769 535.598 26.428C536.447 26.4791 537.254 26.566 538.026 26.6886C538.803 26.8113 539.508 26.9288 540.147 27.0668C540.786 27.2048 541.338 27.3581 541.767 27.5319L540.285 37.8199C537.08 37.0941 533.907 36.716 530.789 36.716C527.288 36.716 524.462 37.4417 522.31 38.9034C520.153 40.3702 518.59 42.3838 517.552 44.9852V74.5919H507.09V27.1997H516.898L517.378 34.595C519.31 32.0294 521.584 30.0106 524.237 28.5285C526.889 27.0464 529.823 26.3206 533.063 26.3206V26.336V26.3411Z" fill="#F5F5F4"/>
<path d="M211.274 130.887H185.301V150.895H215.705V159.476H174.86V95.7094H215.393V104.377H185.301V122.372H211.274V130.866V130.882V130.887Z" fill="#F5F5F4"/>
<path d="M221.991 135.384C221.991 131.801 222.405 128.51 223.248 125.525C224.092 122.546 225.298 119.996 226.903 117.89C228.507 115.769 230.47 114.134 232.795 112.963C235.121 111.793 237.778 111.205 240.758 111.205C243.482 111.205 245.843 111.685 247.877 112.636C249.911 113.582 251.669 114.931 253.167 116.684L253.683 112.084H262.954V177.696H252.594V155.5C251.112 157.084 249.405 158.275 247.443 159.119C245.48 159.946 243.221 160.36 240.686 160.36C237.773 160.36 235.157 159.757 232.846 158.551C230.536 157.345 228.574 155.653 226.969 153.517C225.364 151.381 224.143 148.831 223.279 145.897C222.436 142.969 222.001 139.779 222.001 136.33V135.384H221.986H221.991ZM232.351 136.314C232.351 138.451 232.555 140.469 232.99 142.365C233.404 144.262 234.058 145.933 234.952 147.364C235.846 148.795 236.986 149.929 238.381 150.757C239.777 151.585 241.417 151.999 243.329 151.999C245.639 151.999 247.535 151.519 249.017 150.532C250.499 149.551 251.69 148.238 252.62 146.566V124.851C251.69 123.266 250.484 122.025 249.002 121.074C247.519 120.144 245.659 119.679 243.436 119.679C241.504 119.679 239.833 120.093 238.453 120.921C237.073 121.749 235.918 122.883 235.024 124.314C234.129 125.745 233.455 127.416 233.025 129.328C232.596 131.239 232.371 133.258 232.371 135.394V136.309H232.356L232.351 136.314Z" fill="#F5F5F4"/>
<path d="M304.479 152.996C302.895 155.342 300.963 157.151 298.689 158.444C296.414 159.737 293.879 160.391 291.068 160.391C288.641 160.391 286.418 160.013 284.414 159.252C282.395 158.495 280.694 157.289 279.263 155.633C277.832 153.977 276.712 151.877 275.92 149.327C275.128 146.776 274.729 143.689 274.729 140.107V112.084H285.089V140.194C285.089 142.468 285.263 144.349 285.59 145.846C285.917 147.328 286.433 148.519 287.123 149.398C287.813 150.277 288.692 150.896 289.724 151.259C290.757 151.621 291.999 151.81 293.445 151.81C296.22 151.81 298.459 151.259 300.166 150.175C301.873 149.092 303.166 147.609 304.024 145.729V112.09H314.435V159.482H305.077L304.474 153.001L304.479 152.996Z" fill="#F5F5F4"/>
<path d="M355.286 159.476C354.994 158.889 354.749 158.199 354.56 157.427C354.371 156.635 354.197 155.791 354.059 154.892C353.333 155.648 352.526 156.359 351.611 157.013C350.696 157.667 349.679 158.255 348.575 158.735C347.471 159.216 346.265 159.63 344.972 159.926C343.679 160.217 342.299 160.355 340.838 160.355C338.354 160.355 336.1 159.993 334.096 159.287C332.078 158.562 330.376 157.58 328.945 156.308C327.514 155.03 326.41 153.548 325.638 151.826C324.861 150.103 324.468 148.243 324.468 146.224C324.468 141.139 326.349 137.26 330.084 134.572C333.826 131.883 339.202 130.539 346.199 130.539H353.783V127.437C353.783 124.922 352.94 122.939 351.269 121.457C349.597 119.975 347.221 119.249 344.149 119.249C342.754 119.249 341.548 119.423 340.51 119.75C339.478 120.093 338.599 120.543 337.909 121.13C337.219 121.718 336.703 122.408 336.34 123.18C335.977 123.957 335.824 124.815 335.824 125.715H325.464C325.464 123.87 325.894 122.096 326.742 120.353C327.585 118.611 328.843 117.062 330.498 115.718C332.154 114.358 334.168 113.27 336.55 112.462C338.926 111.655 341.65 111.241 344.717 111.241C347.492 111.241 350.057 111.583 352.439 112.273C354.815 112.963 356.87 113.98 358.592 115.34C360.335 116.699 361.679 118.391 362.676 120.425C363.678 122.459 364.158 124.82 364.158 127.544V148.657C364.158 150.727 364.311 152.623 364.608 154.325C364.919 156.032 365.349 157.514 365.937 158.771V159.512H355.321L355.286 159.476ZM342.805 151.897C344.134 151.897 345.391 151.723 346.562 151.396C347.732 151.069 348.785 150.619 349.73 150.088C350.66 149.551 351.473 148.933 352.158 148.228C352.833 147.522 353.379 146.812 353.778 146.071V137.178H347.195C342.974 137.178 339.851 137.868 337.853 139.227C335.834 140.607 334.837 142.555 334.837 145.105C334.837 146.071 334.991 146.965 335.318 147.793C335.63 148.621 336.125 149.342 336.764 149.95C337.418 150.553 338.246 151.018 339.228 151.381C340.229 151.723 341.415 151.897 342.81 151.897H342.795H342.805Z" fill="#F5F5F4"/>
<path d="M374.001 92.2136H399.37V150.809H413.675V159.476H374.001V150.809H388.909V100.933H374.001V92.2136Z" fill="#F5F5F4"/>
<path d="M419.636 112.084H444.658V150.793H458.585V159.461H419.651V150.793H434.211V120.788H419.651V112.069L419.636 112.084ZM433.337 99.8284C433.337 98.1929 433.854 96.8488 434.906 95.7806C435.939 94.7125 437.406 94.1758 439.286 94.1758C441.167 94.1758 442.68 94.7125 443.733 95.7806C444.786 96.8488 445.317 98.1929 445.317 99.8284C445.317 101.464 444.781 102.808 443.733 103.876C442.68 104.944 441.198 105.481 439.286 105.481C437.375 105.481 435.944 104.944 434.906 103.876C433.874 102.808 433.337 101.464 433.337 99.8284Z" fill="#F5F5F4"/>
<path d="M480.387 100.621V112.1H498.121V119.888H480.387V142.621C480.387 144.395 480.591 145.877 481.005 147.052C481.419 148.223 482.007 149.153 482.763 149.863C483.52 150.568 484.399 151.054 485.4 151.33C486.402 151.606 487.521 151.744 488.743 151.744C489.637 151.744 490.567 151.693 491.533 151.591C492.499 151.488 493.445 151.366 494.36 151.248C495.274 151.125 496.102 150.972 496.874 150.819C497.651 150.666 498.29 150.507 498.806 150.354L499.976 157.575C499.22 158.005 498.32 158.419 497.273 158.781C496.22 159.144 495.065 159.436 493.828 159.676C492.586 159.916 491.293 160.09 489.949 160.228C488.605 160.366 487.276 160.417 485.983 160.417C483.637 160.417 481.501 160.09 479.538 159.436C477.591 158.781 475.92 157.764 474.504 156.369C473.109 154.989 472.005 153.2 471.213 151.028C470.421 148.856 470.022 146.255 470.022 143.204V119.904H458.579V112.115H470.022V100.636H480.382L480.387 100.621Z" fill="#F5F5F4"/>
<path d="M526.532 140.521L528.239 146.209L540.913 112.085H551.963L529.113 166.647C528.617 167.838 527.952 169.131 527.155 170.526C526.343 171.906 525.351 173.199 524.171 174.405C522.995 175.611 521.584 176.613 519.944 177.405C518.303 178.213 516.382 178.611 514.194 178.611C513.285 178.611 512.354 178.525 511.429 178.371C510.499 178.218 509.671 178.029 508.946 177.819L510.371 169.668C510.571 169.668 510.836 169.668 511.169 169.683C511.501 169.698 511.848 169.719 512.211 169.749C512.574 169.785 512.906 169.8 513.239 169.816C513.555 169.816 513.816 169.831 514.015 169.831C514.992 169.831 515.855 169.54 516.617 168.937C517.378 168.334 518.058 167.644 518.641 166.887C519.218 166.11 519.699 165.354 520.082 164.613C520.465 163.872 520.726 163.371 520.894 163.095L523.859 157.218L504.688 112.064H515.692L526.578 140.485L526.527 140.521H526.532Z" fill="#F5F5F4"/>
<path d="M49.4825 19.4977H29.9031V74.5969H19.4414V19.4977H0V10.8299H49.4978V19.4977H49.4825Z" fill="#F5F5F4"/>
<path d="M87.8082 51.9511H95.8219V60.3941H87.8082V74.5765H77.3465V60.3941H49.6665L49.4059 54.0516L76.9989 10.8299H87.8235V51.9511H87.8082ZM60.1794 51.9511H77.3465V24.7874L76.2068 26.8368L60.1794 51.9307V51.946V51.9511Z" fill="#F5F5F4"/>
<path d="M41.1059 130.887H15.5878V150.895H45.45V159.476H5.31003V95.7094H45.1485V104.377H15.5725V122.372H41.0905V130.866L41.1059 130.882V130.887Z" fill="#F5F5F4"/>
<path d="M97.8305 132.231C97.8305 134.388 97.6414 136.524 97.2632 138.624C96.885 140.725 96.333 142.759 95.6278 144.706C94.9225 146.653 94.0076 148.498 92.9037 150.205C91.7998 151.912 90.5425 153.446 89.1115 154.79L99.9668 164.112L93.0059 170.47L80.5612 159.558C79.6311 159.798 78.6498 159.987 77.6481 160.125C76.6464 160.279 75.5782 160.35 74.4794 160.35C70.6003 160.35 67.2221 159.543 64.3447 157.923C61.4674 156.303 59.0858 154.166 57.1948 151.529C55.2987 148.892 53.8881 145.892 52.9528 142.534C52.0227 139.171 51.5372 135.742 51.5065 132.246V124.094C51.5423 121.56 51.7467 119.06 52.1607 116.633C52.5746 114.205 53.193 111.895 54.0414 109.703C54.8847 107.53 55.9375 105.532 57.1948 103.723C58.452 101.914 59.9188 100.345 61.6258 99.0159C63.3328 97.6871 65.2442 96.6547 67.3805 95.929C69.5373 95.2033 71.8985 94.8455 74.4998 94.8455C78.4096 94.8455 81.8236 95.653 84.752 97.2578C87.6652 98.8626 90.0928 101.014 92.0247 103.723C93.9565 106.427 95.4029 109.549 96.3688 113.081C97.3348 116.612 97.8356 120.287 97.851 124.11V132.261V132.226H97.8356L97.8305 132.231ZM87.2308 124.008C87.2308 121.524 87.0417 119.081 86.643 116.648C86.2444 114.22 85.5749 112.064 84.6089 110.168C83.643 108.272 82.3347 106.738 80.6992 105.547C79.0433 104.357 76.9786 103.774 74.4947 103.774C72.0109 103.774 69.9768 104.362 68.3925 105.547C66.8081 106.738 65.5304 108.272 64.6003 110.183C63.6701 112.094 63.0159 114.266 62.6531 116.699C62.2902 119.127 62.1011 121.56 62.1011 124.008V132.246C62.1011 134.403 62.2902 136.626 62.6531 138.88C63.0159 141.139 63.6701 143.224 64.6003 145.1C65.5304 146.98 66.8081 148.529 68.3925 149.72C69.9768 150.926 72.0313 151.514 74.4947 151.514C76.9581 151.514 79.0791 150.911 80.7145 149.72C82.35 148.514 83.643 146.996 84.6089 145.12C85.5749 143.26 86.2444 141.175 86.643 138.9C87.0417 136.626 87.2308 134.403 87.2308 132.246V124.008Z" fill="#F5F5F4"/>
<path d="M137.991 0H127.376V169.969H137.991V0Z" fill="#F5F5F4"/>
</svg>
